<mxfile host="app.diagrams.net" modified="2024-03-27T13:47:47.487Z" agent="Mozilla/5.0 (Windows NT 10.0; Win64; x64) AppleWebKit/537.36 (KHTML, like Gecko) Chrome/123.0.0.0 Safari/537.36" version="24.2.0" etag="-HziVfuRQW1bZ5ejVmnH" type="github">
  <diagram name="ページ1" id="bywpHK4YlmZJYlUn1Gat">
    <mxGraphModel>
      <root>
        <mxCell id="0" />
        <mxCell id="1" parent="0" />
      </root>
    </mxGraphModel>
  </diagram>
</mxfile>
